<?xml version="1.0" ?><svg id="Layer_1" style="enable-background:new 0 0 96 96;" version="1.1" viewBox="0 0 96 96" xml:space="preserve" xmlns="http://www.w3.org/2000/svg" xmlns:xlink="http://www.w3.org/1999/xlink"><style type="text/css">
	.st0{fill-rule:evenodd;clip-rule:evenodd;fill:#737577;}
	.st1{fill-rule:evenodd;clip-rule:evenodd;fill:#414042;}
	.st2{fill-rule:evenodd;clip-rule:evenodd;fill:#8ED8F8;}
</style><g id="XMLID_2_"><rect class="st0" height="96" id="XMLID_80_" width="60" x="18.4" y="0"/><rect class="st1" height="12" id="XMLID_79_" width="12" x="62.4" y="84"/><path class="st2" d="M22.4,84h4v4h-4V84L22.4,84z M22.4,28h4v4h-4V28L22.4,28z M30.4,28h4v4h-4V28L30.4,28z M38.4,28   h4v4h-4V28L38.4,28z M46.4,28h4v4h-4V28L46.4,28z M54.4,28h4v4h-4V28L54.4,28z M62.4,28h4v4h-4V28L62.4,28z M70.4,28h4v4h-4V28   L70.4,28z M22.4,20h4v4h-4V20L22.4,20z M30.4,20h4v4h-4V20L30.4,20z M38.4,20h4v4h-4V20L38.4,20z M46.4,20h4v4h-4V20L46.4,20z    M54.4,20h4v4h-4V20L54.4,20z M62.4,20h4v4h-4V20L62.4,20z M70.4,20h4v4h-4V20L70.4,20z M22.4,12h4v4h-4V12L22.4,12z M30.4,12h4v4   h-4V12L30.4,12z M38.4,12h4v4h-4V12L38.4,12z M46.4,12h4v4h-4V12L46.4,12z M54.4,12h4v4h-4V12L54.4,12z M62.4,12h4v4h-4V12L62.4,12   z M70.4,12h4v4h-4V12L70.4,12z M22.4,4h4v4h-4V4L22.4,4z M30.4,4h4v4h-4V4L30.4,4z M38.4,4h4v4h-4V4L38.4,4z M46.4,4h4v4h-4V4   L46.4,4z M54.4,4h4v4h-4V4L54.4,4z M62.4,4h4v4h-4V4L62.4,4z M70.4,4h4v4h-4V4L70.4,4z M30.4,84h4v4h-4V84L30.4,84z M38.4,84h4v4   h-4V84L38.4,84z M46.4,84h4v4h-4V84L46.4,84z M54.4,84h4v4h-4V84L54.4,84z M22.4,76h4v4h-4V76L22.4,76z M30.4,76h4v4h-4V76L30.4,76   z M38.4,76h4v4h-4V76L38.4,76z M46.4,76h4v4h-4V76L46.4,76z M54.4,76h4v4h-4V76L54.4,76z M62.4,76h4v4h-4V76L62.4,76z M70.4,76h4v4   h-4V76L70.4,76z M22.4,68h4v4h-4V68L22.4,68z M30.4,68h4v4h-4V68L30.4,68z M38.4,68h4v4h-4V68L38.4,68z M46.4,68h4v4h-4V68L46.4,68   z M54.4,68h4v4h-4V68L54.4,68z M62.4,68h4v4h-4V68L62.4,68z M70.4,68h4v4h-4V68L70.4,68z M22.4,60h4v4h-4V60L22.4,60z M30.4,60h4v4   h-4V60L30.4,60z M38.4,60h4v4h-4V60L38.4,60z M46.4,60h4v4h-4V60L46.4,60z M54.4,60h4v4h-4V60L54.4,60z M62.4,60h4v4h-4V60L62.4,60   z M70.4,60h4v4h-4V60L70.4,60z M22.4,52h4v4h-4V52L22.4,52z M30.4,52h4v4h-4V52L30.4,52z M38.4,52h4v4h-4V52L38.4,52z M46.4,52h4v4   h-4V52L46.4,52z M54.4,52h4v4h-4V52L54.4,52z M62.4,52h4v4h-4V52L62.4,52z M70.4,52h4v4h-4V52L70.4,52z M22.4,44h4v4h-4V44L22.4,44   z M30.4,44h4v4h-4V44L30.4,44z M38.4,44h4v4h-4V44L38.4,44z M46.4,44h4v4h-4V44L46.4,44z M54.4,44h4v4h-4V44L54.4,44z M62.4,44h4v4   h-4V44L62.4,44z M70.4,44h4v4h-4V44L70.4,44z M22.4,36h4v4h-4V36L22.4,36z M30.4,36h4v4h-4V36L30.4,36z M38.4,36h4v4h-4V36L38.4,36   z M46.4,36h4v4h-4V36L46.4,36z M54.4,36h4v4h-4V36L54.4,36z M62.4,36h4v4h-4V36L62.4,36z M70.4,36h4v4h-4V36z" id="XMLID_3_"/></g></svg>