<?xml version="1.0" ?><svg id="Layer_1" style="enable-background:new 0 0 96 96;" version="1.1" viewBox="0 0 96 96" xml:space="preserve" xmlns="http://www.w3.org/2000/svg" xmlns:xlink="http://www.w3.org/1999/xlink"><style type="text/css">
	.st0{fill-rule:evenodd;clip-rule:evenodd;fill:#F48580;}
	.st1{fill-rule:evenodd;clip-rule:evenodd;fill:#EB938C;}
	.st2{fill-rule:evenodd;clip-rule:evenodd;fill:#806A50;}
	.st3{fill-rule:evenodd;clip-rule:evenodd;fill:#D1D3D4;}
	.st4{fill-rule:evenodd;clip-rule:evenodd;fill:#00AEEF;}
</style><g id="XMLID_2_"><rect class="st0" height="76.1" id="XMLID_25_" width="88" x="4.4" y="19.9"/><polygon class="st1" id="XMLID_24_" points="68.4,96 28.4,96 28.4,19.9 68.4,19.9  "/><rect class="st2" height="4" id="XMLID_23_" width="96" x="0.4" y="92"/><polygon class="st3" id="XMLID_22_" points="78.7,87.4 87.9,87.4 87.9,62.4 71.9,62.4 71.9,87.4  "/><rect class="st4" height="8" id="XMLID_21_" width="8" x="75.9" y="75.4"/><rect class="st4" height="5" id="XMLID_20_" width="8" x="75.9" y="66.4"/><polygon class="st3" id="XMLID_19_" points="15.2,87.4 24.4,87.4 24.4,62.4 8.4,62.4 8.4,87.4  "/><rect class="st4" height="8" id="XMLID_18_" width="8" x="12.4" y="75.4"/><rect class="st4" height="5" id="XMLID_17_" width="8" x="12.4" y="66.4"/><rect class="st3" height="38" id="XMLID_16_" width="28" x="34.4" y="54"/><rect class="st2" height="34" id="XMLID_15_" width="20" x="38.4" y="58"/><polygon class="st3" id="XMLID_14_" points="78.7,57 87.9,57 87.9,32 71.9,32 71.9,57  "/><rect class="st4" height="8" id="XMLID_13_" width="8" x="75.9" y="45"/><rect class="st4" height="5" id="XMLID_12_" width="8" x="75.9" y="36"/><polygon class="st3" id="XMLID_11_" points="15.2,57 24.4,57 24.4,32 8.4,32 8.4,57  "/><rect class="st4" height="8" id="XMLID_10_" width="8" x="12.4" y="45"/><rect class="st4" height="5" id="XMLID_9_" width="8" x="12.4" y="36"/><path class="st2" d="M13.9,0h69.4c1.3,0,2.4,0.5,3.2,1.5l9.3,11.9c1,1.2,1.1,2.8,0.4,4.2c-0.7,1.4-2,2.2-3.6,2.2h-88   c-1.6,0-2.9-0.8-3.6-2.2c-0.7-1.4-0.5-3,0.4-4.2l9.3-11.9C11.5,0.5,12.6,0,13.9,0z" id="XMLID_8_"/><g id="XMLID_3_"><path class="st3" d="M48.4,28.3c4.4,0,8,3.6,8,8s-3.6,8-8,8c-4.4,0-8-3.6-8-8S43.9,28.3,48.4,28.3L48.4,28.3z     M48.4,32.3c-2.2,0-4,1.8-4,4c0,2.2,1.8,4,4,4c2.2,0,4-1.8,4-4C52.4,34.1,50.6,32.3,48.4,32.3z" id="XMLID_5_"/><path class="st4" d="M48.4,40.3c2.2,0,4-1.8,4-4c0-2.2-1.8-4-4-4c-2.2,0-4,1.8-4,4C44.4,38.5,46.2,40.3,48.4,40.3z" id="XMLID_4_"/></g></g></svg>